<svg xmlns="http://www.w3.org/2000/svg" width="53.625" height="53.496" viewBox="0 0 53.625 53.496">
  <g id="svgexport-6_-_2022-09-04T135401.635" data-name="svgexport-6 - 2022-09-04T135401.635" transform="translate(-12.39 -12.37)">
    <g id="real_estate" data-name="real estate" transform="translate(12.39 12.37)">
      <path id="Path_44" data-name="Path 44" d="M10.958,38a.958.958,0,0,0-.958.958V52.364a.958.958,0,1,0,1.915,0V38.958A.958.958,0,0,0,10.958,38Z" transform="translate(-4.255 -5.442)" fill="#1fc170"/>
      <path id="Path_45" data-name="Path 45" d="M4,55.882l3.83-3.83V40H4Z" transform="translate(-4 -5.527)" fill="#1fc170"/>
      <path id="Path_46" data-name="Path 46" d="M21.714,34.027l6.971,3.718H51.224c2.18-.937,3.238-1.383,3.759-1.6L57.059,32H4.618l2.873,5.745h.542a2.853,2.853,0,0,1,5.231-.366L20.874,34a.958.958,0,0,1,.84.03Z" transform="translate(-4.026 -5.188)" fill="#1fc170"/>
      <path id="Path_47" data-name="Path 47" d="M28.406,4H15V28.9H28.406ZM18.83,26.982H16.915V25.067H18.83Zm0-3.83H16.915V21.236H18.83Zm0-3.83H16.915V17.406H18.83Zm0-3.83H16.915V13.576H18.83Zm0-3.83H16.915V9.745H18.83Zm0-3.83H16.915V5.915H18.83Zm3.83,19.152H20.745V25.067h1.915Zm0-3.83H20.745V21.236h1.915Zm0-3.83H20.745V17.406h1.915Zm0-3.83H20.745V13.576h1.915Zm0-3.83H20.745V9.745h1.915Zm0-3.83H20.745V5.915h1.915Zm3.83,19.152H24.576V25.067h1.915Zm0-3.83H24.576V21.236h1.915Zm0-3.83H24.576V17.406h1.915Zm0-3.83H24.576V13.576h1.915Zm0-3.83H24.576V9.745h1.915Zm0-3.83H24.576V5.915h1.915Z" transform="translate(-4.467 -4)" fill="#1fc170"/>
      <path id="Path_48" data-name="Path 48" d="M48.236,12H31V29.236H48.236ZM34.83,27.321H32.915V25.406H34.83Zm0-3.83H32.915V21.576H34.83Zm0-3.83H32.915V17.745H34.83Zm0-3.83H32.915V13.915H34.83Zm3.83,11.491H36.745V25.406h1.915Zm0-3.83H36.745V21.576h1.915Zm0-3.83H36.745V17.745h1.915Zm0-3.83H36.745V13.915h1.915Zm3.83,11.491H40.576V25.406h1.915Zm0-3.83H40.576V21.576h1.915Zm0-3.83H40.576V17.745h1.915Zm0-3.83H40.576V13.915h1.915Zm3.83,11.491H44.406V25.406h1.915Zm0-3.83H44.406V21.576h1.915Zm0-3.83H44.406V17.745h1.915Zm0-3.83H44.406V13.915h1.915Z" transform="translate(-5.145 -4.339)" fill="#1fc170"/>
      <path id="Path_49" data-name="Path 49" d="M57.51,38.335a1.516,1.516,0,0,0-1.149-.351c-.766.287-12.55,5.4-20.416,8.827a2.844,2.844,0,0,1-1.837.685H21.661V45.581H34.109a.958.958,0,0,0,.958-.958V43.282l-13.444-7.17L14,39.5V51.648l17.124,7.211L57.39,40.741a1.524,1.524,0,0,0,.659-1.241,1.478,1.478,0,0,0-.538-1.164Z" transform="translate(-4.424 -5.362)" fill="#1fc170"/>
      <path id="Path_50" data-name="Path 50" d="M48.016,40H33.5l3.8,2.027a.958.958,0,0,1,.508.846v1.564C42.126,42.556,45.452,41.111,48.016,40Z" transform="translate(-5.252 -5.527)" fill="#1fc170"/>
    </g>
  </g>
</svg>
