<svg xmlns="http://www.w3.org/2000/svg" width="52.358" height="53.309" viewBox="0 0 52.358 53.309">
  <g id="svgexport-7_62_" data-name="svgexport-7 (62)" transform="translate(-4.565)">
    <g id="Group_40" data-name="Group 40" transform="translate(10.422 38.879)">
      <g id="Group_39" data-name="Group 39">
        <path id="Path_51" data-name="Path 51" d="M100.26,384.707l-20.967-11.1a1.682,1.682,0,0,0-1.729.1l-16.033,11.1a1.666,1.666,0,0,0,.946,3.035h37a1.666,1.666,0,0,0,.783-3.135Z" transform="translate(-60.814 -373.412)" fill="#75b7c1"/>
      </g>
    </g>
    <g id="Group_42" data-name="Group 42" transform="translate(32.625 23.504)">
      <g id="Group_41" data-name="Group 41">
        <path id="Path_52" data-name="Path 52" d="M298.328,249.248l-4.931-22.2a1.668,1.668,0,0,0-2.575-1.01l-16.036,11.1a1.664,1.664,0,0,0,.17,2.839l20.964,11.1a1.671,1.671,0,0,0,.78.2,1.644,1.644,0,0,0,1.01-.343A1.668,1.668,0,0,0,298.328,249.248Z" transform="translate(-274.069 -225.744)" fill="#75b7c1"/>
      </g>
    </g>
    <g id="Group_44" data-name="Group 44" transform="translate(5.629 19.991)">
      <g id="Group_43" data-name="Group 43">
        <path id="Path_53" data-name="Path 53" d="M54.438,193.169A1.67,1.67,0,0,0,52.845,192H37.639A69.535,69.535,0,0,1,29.1,203.668a5,5,0,0,1-7.437,0c-.65-.723-1.656-1.879-2.809-3.312L14.823,218.5a1.665,1.665,0,0,0,1.626,2.026,1.65,1.65,0,0,0,.95-.3l36.393-25.2A1.66,1.66,0,0,0,54.438,193.169Z" transform="translate(-14.784 -192)" fill="#75b7c1"/>
      </g>
    </g>
    <g id="Group_46" data-name="Group 46" transform="translate(4.565)">
      <g id="Group_45" data-name="Group 45" transform="translate(0)">
        <path id="Path_54" data-name="Path 54" d="M16.226,0A11.674,11.674,0,0,0,4.565,11.661c0,5.984,9.356,16.582,10.422,17.772a1.665,1.665,0,0,0,2.479,0c1.066-1.189,10.422-11.788,10.422-17.772A11.674,11.674,0,0,0,16.226,0Zm0,16.659a5,5,0,1,1,5-5A5,5,0,0,1,16.226,16.659Z" transform="translate(-4.565)" fill="#75b7c1"/>
      </g>
    </g>
  </g>
</svg>
