<svg xmlns="http://www.w3.org/2000/svg" width="58.598" height="58.596" viewBox="0 0 58.598 58.596">
  <g id="svgexport-6_-_2022-09-04T141825.580" data-name="svgexport-6 - 2022-09-04T141825.580" transform="translate(0.003 0.036)">
    <path id="Path_57" data-name="Path 57" d="M25.344,10.728,36.9,20.785v15.5H32.345V25.82a1.994,1.994,0,0,0-2-2H20.34a1.994,1.994,0,0,0-2,2V36.285H13.791v-15.5ZM28.35,36.286V27.819H22.337v8.467Zm-18.553,2a1.993,1.993,0,0,0,2,2H38.9a1.994,1.994,0,0,0,2-2V24.261l.778-.02a2,2,0,0,0,1.256-3.5L26.656,6.577a2,2,0,0,0-2.623,0L7.761,20.743a2,2,0,0,0,1.257,3.5l.779.02ZM7.421,7.388a25.347,25.347,0,1,0,35.847,0,25.347,25.347,0,0,0-35.847,0Zm50.49,47.189a2.333,2.333,0,0,1-3.3,3.3L44.386,47.656l.622-.564q.554-.5,1.085-1.03t1.028-1.082l.563-.626Z" transform="translate(0 0)" fill="#8775ad" fill-rule="evenodd"/>
  </g>
</svg>
