<svg xmlns="http://www.w3.org/2000/svg" width="49.548" height="49.553" viewBox="0 0 49.548 49.553">
  <g id="svgexport-6_-_2022-09-04T141148.752" data-name="svgexport-6 - 2022-09-04T141148.752" transform="translate(0 0.004)">
    <g id="Group_47" data-name="Group 47" transform="translate(0 -0.004)">
      <rect id="Rectangle_29" data-name="Rectangle 29" width="30.966" height="30.966" rx="3" transform="translate(0 18.587)" fill="#d9ac79"/>
      <path id="Path_55" data-name="Path 55" d="M30.894,5.827a2.025,2.025,0,0,0-.555-1.1L26.223.6A2.066,2.066,0,1,0,23.3,3.522l.611.611H7.04l.6-.6A2.065,2.065,0,0,0,4.726.609L.6,4.737a2.1,2.1,0,0,0,0,2.921l4.129,4.129a2.091,2.091,0,0,0,2.919,0,2.064,2.064,0,0,0,0-2.919l-.6-.607H23.908l-.6.6a2.064,2.064,0,0,0,0,2.919,2.114,2.114,0,0,0,2.921,0l4.129-4.129a2.1,2.1,0,0,0,.541-1.829Z" transform="translate(0.008 0.004)" fill="#d9ac79"/>
      <path id="Path_56" data-name="Path 56" d="M26.867,32.3l-.6.6V16.04l.6.6a2.066,2.066,0,0,0,2.919-2.923L25.657,9.593a2.128,2.128,0,0,0-2.927,0L18.6,13.709a2.064,2.064,0,0,0,0,2.921,2.089,2.089,0,0,0,2.921,0l.611-.592v16.87l-.6-.6a2.065,2.065,0,0,0-2.921,2.919l4.129,4.129a2.1,2.1,0,0,0,2.921,0l4.129-4.129A2.064,2.064,0,1,0,26.869,32.3Z" transform="translate(19.155 9.597)" fill="#d9ac79"/>
    </g>
  </g>
</svg>
