<svg xmlns="http://www.w3.org/2000/svg" width="15.941" height="15.941" viewBox="0 0 15.941 15.941">
  <g id="svgexport-7_-_2022-12-08T104112.134" data-name="svgexport-7 - 2022-12-08T104112.134" transform="translate(-3 -3)">
    <path id="Path_25474" data-name="Path 25474" d="M15.876,3H6.066A3.069,3.069,0,0,0,3,6.066v7.209l2.74-2.739a3.066,3.066,0,0,1,4.331,0L12.2,12.661l.9-.9a3.066,3.066,0,0,1,4.331,0l1.513,1.513V6.066A3.069,3.069,0,0,0,15.876,3ZM13.73,9.131a1.839,1.839,0,1,1,1.839-1.839A1.839,1.839,0,0,1,13.73,9.131Z" transform="translate(0)" fill="#15ac8b"/>
    <path id="Path_25475" data-name="Path 25475" d="M16.561,17.588a1.839,1.839,0,0,0-2.6,0l-1.337,1.337a.613.613,0,0,1-.862,0L9.2,16.362a1.839,1.839,0,0,0-2.6,0L3,19.971v.867A3.069,3.069,0,0,0,6.066,23.9h9.81a3.069,3.069,0,0,0,3.066-3.066v-.867Z" transform="translate(0 -4.962)" fill="#15ac8b"/>
  </g>
</svg>
