<svg xmlns="http://www.w3.org/2000/svg" width="106" height="106" viewBox="0 0 106 106">
  <g id="Group_75654" data-name="Group 75654" transform="translate(-1491 -677)">
    <circle id="Ellipse_300" data-name="Ellipse 300" cx="53" cy="53" r="53" transform="translate(1491 677)" fill="#fff6e4"/>
    <circle id="Ellipse_301" data-name="Ellipse 301" cx="39" cy="39" r="39" transform="translate(1505 691)" fill="#fec"/>
    <g id="svgexport-7_-_2022-12-12T102631.109" data-name="svgexport-7 - 2022-12-12T102631.109" transform="translate(1528 700.24)">
      <g id="Group_75653" data-name="Group 75653" transform="translate(0 14.759)">
        <g id="Group_75652" data-name="Group 75652" transform="translate(0)">
          <path id="Path_25526" data-name="Path 25526" d="M31.335,37.833l-11.3-20.78a4.688,4.688,0,0,0-8.062,0L.666,37.833A4.685,4.685,0,0,0,4.7,44.914H27.3A4.686,4.686,0,0,0,31.335,37.833ZM16,41.164a1.875,1.875,0,1,1,1.875-1.875A1.877,1.877,0,0,1,16,41.164Zm1.875-7.5a1.875,1.875,0,1,1-3.75,0V24.289a1.875,1.875,0,0,1,3.75,0Z" transform="translate(0 -14.759)" fill="#ffb31f"/>
        </g>
      </g>
    </g>
  </g>
</svg>
