<svg xmlns="http://www.w3.org/2000/svg" width="39" height="35.515" viewBox="0 0 39 35.515">
  <g id="svgexport-7_-_2022-12-08T142933.096" data-name="svgexport-7 - 2022-12-08T142933.096" transform="translate(-5.88 -8.138)">
    <g id="Group_75582" data-name="Group 75582" transform="translate(5.88 8.138)">
      <path id="Path_25519" data-name="Path 25519" d="M19.135,16.285H42.069L29.541,26.123a1.676,1.676,0,0,1-.868.338,1.706,1.706,0,0,1-.874-.338L18.847,19.09a.957.957,0,0,0-.32-.171,3.493,3.493,0,0,0,.649-2.089,5.021,5.021,0,0,0-.041-.546ZM13.3,9.958a.873.873,0,0,1,.179.071,3.2,3.2,0,0,1,.845.694,11.154,11.154,0,0,1,1.609,2.447c.01.021.021.043.031.066a8.4,8.4,0,0,1,1.359,3.623,1.407,1.407,0,0,1-.855,1.492l-1.7.981a3.731,3.731,0,0,0-1.762,2.848,4.719,4.719,0,0,0,.536,2.924l4.2,7.238a4.769,4.769,0,0,0,2.281,1.926,3.764,3.764,0,0,0,3.359-.1l1.7-.979a1.427,1.427,0,0,1,1.727.012,8.437,8.437,0,0,1,2.48,2.978c.013.024.026.044.041.067a11.207,11.207,0,0,1,1.325,2.607,3.176,3.176,0,0,1,.181,1.074c-.02.224-.025.2-.084.237l-1.295.742a9.913,9.913,0,0,1-8.9-.289,16.732,16.732,0,0,1-6.606-6.835c-.005-.006-.008-.013-.012-.017L10.4,27.663a.094.094,0,0,1-.013-.019,16.618,16.618,0,0,1-2.646-9.111,9.786,9.786,0,0,1,4.2-7.809l1.3-.74c.03-.017.04-.03.067-.027Zm.013-1.819a1.931,1.931,0,0,0-1.007.249l-1.369.788c-.031.018-.059.036-.087.053a11.792,11.792,0,0,0-4.96,9.228A18.343,18.343,0,0,0,8.807,28.606l3.531,6.085-.008-.018A18.432,18.432,0,0,0,19.7,42.254a11.92,11.92,0,0,0,10.514.341.7.7,0,0,0,.09-.045l1.371-.788a2.139,2.139,0,0,0,1-1.676,4.535,4.535,0,0,0-.261-1.792,12.24,12.24,0,0,0-1.551-3.058,9.714,9.714,0,0,0-3.108-3.613,3.545,3.545,0,0,0-3.607-.028l-1.7.981a1.867,1.867,0,0,1-1.709-.006,3.265,3.265,0,0,1-1.4-1.151l-4.2-7.238a3.246,3.246,0,0,1-.3-1.784,1.837,1.837,0,0,1,.851-1.469l1.653-.95a.915.915,0,0,0,.35.557l8.954,7.035a3.517,3.517,0,0,0,1.967.752.977.977,0,0,0,.107,0,3.513,3.513,0,0,0,1.964-.752l12.332-9.687v16c0,.243-.278.564-.822.564H33.665a.922.922,0,1,0,0,1.844H42.2a2.56,2.56,0,0,0,2.678-2.408V16.849A2.56,2.56,0,0,0,42.2,14.44H18.627a16.429,16.429,0,0,0-1.04-2.1A12.28,12.28,0,0,0,15.7,9.481,4.569,4.569,0,0,0,14.269,8.36v0a2.378,2.378,0,0,0-.953-.224Z" transform="translate(-5.88 -8.138)" fill="#15ac8b"/>
    </g>
  </g>
</svg>
