<svg xmlns="http://www.w3.org/2000/svg" width="39" height="41.801" viewBox="0 0 39 41.801">
  <g id="svgexport-7_-_2022-12-08T141145.125" data-name="svgexport-7 - 2022-12-08T141145.125" transform="translate(-2.011 -1.001)">
    <g id="megaphone" transform="translate(2.011 1.001)">
      <path id="Path_25514" data-name="Path 25514" d="M20.377,3.85a1.393,1.393,0,0,0-2.217.333L9.391,20.748l-4.78,4.779a5.558,5.558,0,0,0-1.4,5.435A5.542,5.542,0,0,0,11,38.751a5.584,5.584,0,0,0,1.493.229,5.579,5.579,0,0,0,2.816-.784l3.59,3.588a3.483,3.483,0,1,0,4.926-4.926l-3.449-3.449.838-.838L37.779,23.8a1.392,1.392,0,0,0,.333-2.217ZM5.6,36.365a2.78,2.78,0,0,1-.712-2.683L8.28,37.076A2.779,2.779,0,0,1,5.6,36.365Zm4.927-.985L6.583,31.438a2.791,2.791,0,0,1,0-3.941l3.942-3.942,7.883,7.883-3.942,3.941a2.788,2.788,0,0,1-3.941,0Zm11.331,3.448a.7.7,0,0,1,0,.985.707.707,0,0,1-.986,0l-3.45-3.448.986-.986Zm-1.221-9.1-8.4-8.4,7.5-14.172L34.809,22.222ZM25.684,5.181V2.394a1.393,1.393,0,1,1,2.787,0V5.181a1.393,1.393,0,1,1-2.787,0Zm15.328,9.753a1.393,1.393,0,0,1-1.393,1.393H36.831a1.393,1.393,0,1,1,0-2.787h2.787A1.393,1.393,0,0,1,41.011,14.934Zm-9.346-4.588a1.393,1.393,0,0,1,0-1.97l2.787-2.787a1.393,1.393,0,1,1,1.97,1.97l-2.787,2.787a1.393,1.393,0,0,1-1.97,0Z" transform="translate(-2.011 -1.001)" fill="#15ac8b"/>
    </g>
  </g>
</svg>
