<svg id="Group_75508" data-name="Group 75508" xmlns="http://www.w3.org/2000/svg" width="21.471" height="21.348" viewBox="0 0 21.471 21.348">
  <path id="Path_25477" data-name="Path 25477" d="M90.111,84.166V73.89l6.921-6.313,6.257,5.708h2.474L97.032,65.32,86.348,75.066,87.472,76.3l.971-.886v8.755a2.5,2.5,0,0,0,2.5,2.5h12.174A2.505,2.505,0,0,0,105.476,85H90.945a.835.835,0,0,1-.834-.834Zm0,0" transform="translate(-86.348 -65.32)" fill="#15ac8b"/>
  <path id="Path_25478" data-name="Path 25478" d="M182.211,216.391a4.3,4.3,0,0,0-3.391,1.668h-6.25l-2.231,2.175v.933l2.238,2.126h6.243a4.284,4.284,0,1,0,3.391-6.9Zm0,6.67a2.4,2.4,0,0,1-2.066-1.194l-.274-.474h-3.212l-1.085-1.031-.98,1.031h-1.259l-.743-.705.75-.731h6.528l.274-.474a2.386,2.386,0,1,1,2.066,3.578Zm0,0" transform="translate(-165.025 -206.831)" fill="#15ac8b"/>
  <path id="Path_25479" data-name="Path 25479" d="M359.613,271.752a.834.834,0,1,1-.834-.834A.834.834,0,0,1,359.613,271.752Zm0,0" transform="translate(-340.759 -257.908)" fill="#15ac8b"/>
</svg>
