<svg id="svgexport-6_-_2022-09-05T115011.158" data-name="svgexport-6 - 2022-09-05T115011.158" xmlns="http://www.w3.org/2000/svg" width="49.317" height="51.018" viewBox="0 0 49.317 51.018">
  <g id="Group_69321" data-name="Group 69321" transform="translate(0 0)">
    <g id="Group_69320" data-name="Group 69320" transform="translate(0 0)">
      <path id="Path_855" data-name="Path 855" d="M197.419,271.729h3.4v-6.8h6.8v6.8h3.4v-8.5H197.419Z" transform="translate(-177.862 -236.017)" fill="#15ac8b"/>
      <path id="Path_856" data-name="Path 856" d="M246.774,296.129h3.4v5.1h-3.4Z" transform="translate(-222.116 -265.518)" fill="#15ac8b"/>
      <path id="Path_857" data-name="Path 857" d="M181.471,164.96l-8.343,6.827a1.7,1.7,0,0,0,1.66,1.33H190.1a1.7,1.7,0,0,0,1.659-1.331l-8.343-6.826A1.573,1.573,0,0,0,181.471,164.96Z" transform="translate(-156.082 -147.608)" fill="#15ac8b"/>
      <circle id="Ellipse_15" data-name="Ellipse 15" cx="2.551" cy="2.551" r="2.551" transform="translate(23.808 45.916)" fill="#15ac8b"/>
      <path id="Path_858" data-name="Path 858" d="M222.508,413.057l1.2,1.2a4.257,4.257,0,0,1,6.012,0l1.2-1.2A5.959,5.959,0,0,0,222.508,413.057Z" transform="translate(-200.358 -368.799)" fill="#15ac8b"/>
      <path id="Path_859" data-name="Path 859" d="M199.245,381.165l1.2,1.2a7.663,7.663,0,0,1,10.823,0l1.2-1.2A9.364,9.364,0,0,0,199.245,381.165Z" transform="translate(-179.5 -339.312)" fill="#15ac8b"/>
      <path id="Path_860" data-name="Path 860" d="M224.223,8.5H225.5V5.717a1.7,1.7,0,1,1,1.7,0V8.5h1.275l1.275-1.7a4.252,4.252,0,1,0-6.8,0Z" transform="translate(-199.989 0)" fill="#15ac8b"/>
      <path id="Path_861" data-name="Path 861" d="M246.774,99.56a.852.852,0,0,0,.85.85h1.7a.852.852,0,0,0,.85-.85v-.85h-3.4v.85Z" transform="translate(-222.116 -88.506)" fill="#15ac8b"/>
      <path id="Path_862" data-name="Path 862" d="M18.692,184.512l.477-1.021-1.562-1.562-1.022.478-.867-.36-.18-.38-.254-.7H13.074l-.385,1.059-.916.38-1.022-.478-1.562,1.562.477,1.021-.359.866-.381.182-.7.254v2.21l1.059.385.38.918-.477,1.021,1.562,1.562,1.021-.477.866.359.182.381.253.7h2.21l.385-1.059.918-.38,1.021.477,1.562-1.562-.477-1.021.359-.866.381-.182.7-.253v-2.21l-1.059-.385Zm-4.513,5.808a3.4,3.4,0,1,1,3.4-3.4A3.4,3.4,0,0,1,14.179,190.32Z" transform="translate(-8.227 -162.261)" fill="#15ac8b"/>
      <path id="Path_863" data-name="Path 863" d="M411.118,179.7l-3.332-6.665a.526.526,0,0,0-.94,0l-3.332,6.665a4.288,4.288,0,0,0-.449,1.9v.5a4.251,4.251,0,1,0,8.5,0v-.5A4.28,4.28,0,0,0,411.118,179.7Z" transform="translate(-362.25 -154.886)" fill="#15ac8b"/>
    </g>
  </g>
</svg>
