<svg xmlns="http://www.w3.org/2000/svg" width="32.642" height="42.854" viewBox="0 0 32.642 42.854">
  <g id="svgexport-6_-_2022-09-06T162144.009" data-name="svgexport-6 - 2022-09-06T162144.009" transform="translate(-61)">
    <path id="Path_25091" data-name="Path 25091" d="M92.542,31.1A3.736,3.736,0,0,0,89.88,30H88.211v1.674a3.35,3.35,0,0,1-3.344,3.348H69.818a3.35,3.35,0,0,1-3.344-3.348V30H64.8a3.769,3.769,0,0,0-3.762,3.762L61,66.572a3.764,3.764,0,0,0,3.762,3.771H89.844a3.769,3.769,0,0,0,3.762-3.762l.036-32.81A3.743,3.743,0,0,0,92.542,31.1ZM77.748,42.555h8.91a1.255,1.255,0,0,1,0,2.511h-8.91a1.255,1.255,0,0,1,0-2.511Zm0,8.37h8.91a1.255,1.255,0,0,1,0,2.511h-8.91a1.255,1.255,0,0,1,0-2.511Zm0,8.37h8.946a1.255,1.255,0,0,1,0,2.511H77.748a1.255,1.255,0,0,1,0-2.511ZM67.062,42.6a1.253,1.253,0,0,1,1.774,0l.682.683,2.892-2.9a1.255,1.255,0,1,1,1.773,1.775L70.4,45.95a1.253,1.253,0,0,1-1.774,0L67.062,44.38A1.256,1.256,0,0,1,67.062,42.6Zm0,9.009a1.253,1.253,0,0,1,1.774,0l.682.683,2.892-2.9a1.255,1.255,0,0,1,1.773,1.775L70.4,54.959a1.253,1.253,0,0,1-1.774,0l-1.569-1.571A1.256,1.256,0,0,1,67.062,51.613Zm0,8.37a1.253,1.253,0,0,1,1.774,0l.682.683,2.892-2.9a1.255,1.255,0,0,1,1.773,1.775L70.4,63.329a1.253,1.253,0,0,1-1.774,0l-1.569-1.571A1.256,1.256,0,0,1,67.062,59.983Z" transform="translate(0 -27.489)" fill="#15ac8b"/>
    <path id="Path_25092" data-name="Path 25092" d="M156.361,4.185a.837.837,0,0,0,.836.837h15.049a.836.836,0,0,0,.836-.837V.837A.836.836,0,0,0,172.246,0H157.2a.837.837,0,0,0-.836.837Z" transform="translate(-87.379)" fill="#15ac8b"/>
  </g>
</svg>
