<svg xmlns="http://www.w3.org/2000/svg" width="35.528" height="40.268" viewBox="0 0 35.528 40.268">
  <g id="svgexport-6_-_2022-09-06T162027.277" data-name="svgexport-6 - 2022-09-06T162027.277" transform="translate(-30.136)">
    <g id="Group_75265" data-name="Group 75265" transform="translate(44.767 0.322)">
      <g id="Group_75264" data-name="Group 75264">
        <path id="Path_25084" data-name="Path 25084" d="M235.9,20.5,220.191,4.789a2.36,2.36,0,1,0-3.339,3.338L232.56,23.833A2.359,2.359,0,0,0,235.9,20.5Z" transform="translate(-216.163 -4.1)" fill="#15ac8b"/>
      </g>
    </g>
    <g id="Group_75267" data-name="Group 75267" transform="translate(38.579 6.52)">
      <g id="Group_75266" data-name="Group 75266" transform="translate(0)">
        <path id="Path_25085" data-name="Path 25085" d="M143.206,82.9l-.118.593a25.361,25.361,0,0,1-5.593,11.329l8.545,8.545a25.277,25.277,0,0,1,11.274-5.648l.594-.118Z" transform="translate(-137.494 -82.905)" fill="#15ac8b"/>
      </g>
    </g>
    <g id="Group_75269" data-name="Group 75269" transform="translate(30.136 20.212)">
      <g id="Group_75268" data-name="Group 75268" transform="translate(0)">
        <path id="Path_25086" data-name="Path 25086" d="M37.013,256.989l-5.84,5.839a3.539,3.539,0,0,0,0,5.006l3.336,3.336a3.539,3.539,0,0,0,5.006,0l5.839-5.839Zm.834,9.176a1.18,1.18,0,0,1-1.668-1.668l1.668-1.668a1.18,1.18,0,0,1,1.668,1.668Z" transform="translate(-30.136 -256.989)" fill="#15ac8b"/>
      </g>
    </g>
    <g id="Group_75271" data-name="Group 75271" transform="translate(42.852 27.219)">
      <g id="Group_75270" data-name="Group 75270">
        <path id="Path_25087" data-name="Path 25087" d="M199.242,353.877l1.6-1.6a3.536,3.536,0,0,0,0-5l-1.192-1.193a22.347,22.347,0,0,0-1.9,1.437l1.424,1.426a1.177,1.177,0,0,1,0,1.667l-1.631,1.631-2.4-2.323-3.337,3.337,5.353,5.187A2.36,2.36,0,0,0,200.5,355.1Z" transform="translate(-191.813 -346.075)" fill="#15ac8b"/>
      </g>
    </g>
    <g id="Group_75273" data-name="Group 75273" transform="translate(53.867)">
      <g id="Group_75272" data-name="Group 75272">
        <path id="Path_25088" data-name="Path 25088" d="M333.044,0a1.179,1.179,0,0,0-1.18,1.18V3.539a1.18,1.18,0,0,0,2.359,0V1.18A1.179,1.179,0,0,0,333.044,0Z" transform="translate(-331.864)" fill="#15ac8b"/>
      </g>
    </g>
    <g id="Group_75275" data-name="Group 75275" transform="translate(60.945 9.438)">
      <g id="Group_75274" data-name="Group 75274">
        <path id="Path_25089" data-name="Path 25089" d="M425.4,120h-2.359a1.18,1.18,0,1,0,0,2.359H425.4a1.18,1.18,0,0,0,0-2.359Z" transform="translate(-421.864 -120)" fill="#15ac8b"/>
      </g>
    </g>
    <g id="Group_75277" data-name="Group 75277" transform="translate(58.585 2.359)">
      <g id="Group_75276" data-name="Group 75276" transform="translate(0)">
        <path id="Path_25090" data-name="Path 25090" d="M396.237,30.345a1.179,1.179,0,0,0-1.668,0L392.209,32.7a1.18,1.18,0,1,0,1.668,1.668l2.359-2.359A1.179,1.179,0,0,0,396.237,30.345Z" transform="translate(-391.864 -30)" fill="#15ac8b"/>
      </g>
    </g>
  </g>
</svg>
